Coordinates
version=1
nRows=7
nColumns=46
inDegrees=yes

Units are S.I. units (second, meters, Newtons, ...)
If the header above contains a line with 'inDegrees', this indicates whether rotational values are in degrees (yes) or radians (no).

endheader 
time	pelvis_tilt	pelvis_list	pelvis_rotation	pelvis_tx	pelvis_ty	pelvis_tz	hip_flexion_l	hip_adduction_l	hip_rotation_l	hip_flexion_r	hip_adduction_r	hip_rotation_r	knee_angle_l	knee_angle_r	ankle_angle_l	ankle_angle_r	subtalar_angle_l	subtalar_angle_r	mtp_angle_l	mtp_angle_r	lumbar_extension	lumbar_bending	lumbar_rotation	arm_flex_l	arm_add_l	arm_rot_l	arm_flex_r	arm_add_r	arm_rot_r	elbow_flex_l	elbow_flex_r	pro_sup_l	pro_sup_r	hip_flexion_l/activation	hip_flexion_r/activation	hip_adduction_l/activation	hip_adduction_r/activation	hip_rotation_l/activation	hip_rotation_r/activation	knee_angle_l/activation	knee_angle_r/activation	ankle_angle_l/activation	ankle_angle_r/activation	subtalar_angle_l/activation	subtalar_angle_r/activation	
          0.03900000	         -9.27811256	         -0.94217817	          3.76923379	         -0.02490319	          0.89105719	         -0.29057231	         -3.38129859	          0.64194164	          1.31925823	         34.89371664	          1.31194312	         -5.86378952	         17.54023776	          9.87802839	         12.61081886	          5.60292321	          6.50978281	        -10.20032771	        -22.04825035	        -44.58968521	          6.76132675	         -0.91947660	         -6.31338962	         15.26150013	        -18.54027246	          7.50383045	        -15.79349627	         -9.06040451	         -7.18917955	         36.16326123	          8.37331576	         78.95933773	         82.62113582	         29.36084474	        -24.13845988	        -25.29326182	        -14.52001925	          0.59731115	          3.09223171	         -1.46473206	          2.07055582	        -66.79180107	          8.17899648	          5.95390406	         -0.99414711	
          0.05915094	         -8.86866065	         -1.83249162	          3.56494873	          0.00374610	          0.88959020	         -0.28764671	         -3.87657976	         -0.76949784	          1.00128679	         33.99254650	          2.59310938	         -5.49427399	         20.91383352	         11.99830064	         10.61277568	          3.61523501	          5.97208794	        -11.53250441	        -26.21846347	        -35.00030716	          6.91957898	          0.53992151	         -6.61001579	         14.16889451	        -17.78372888	          6.84611853	        -15.74757028	         -9.61443280	         -6.83402087	         36.17584100	          7.78852096	         78.92388204	         82.95677623	         -1.15741454	          7.38489282	        -28.83160260	        -25.39813892	          2.86400685	          4.72550348	         11.38293965	        -24.40439401	        -66.64237227	         15.25768620	          3.58307532	         -1.20772490	
          0.07930189	         -8.38454288	         -2.64880168	          3.40102927	          0.03223073	          0.88936257	         -0.28472145	         -3.82199981	         -2.16465401	          0.79360384	         32.83696333	          3.85107508	         -5.06035001	         25.23061346	         13.84698152	          7.58849885	          2.22825500	          5.22144937	        -12.78237096	        -29.88452186	        -27.46629326	          6.95804101	          1.93012033	         -6.90327703	         12.85315983	        -17.01346822	          6.13690140	        -15.43677511	        -10.14709542	         -6.34601922	         35.92808648	          7.33894236	         78.82756413	         83.24907333	        -11.55507485	         19.80595235	        -29.92252976	        -32.97584404	          4.12818584	          6.61948978	         11.96942463	        -38.39030030	        -60.90228234	         17.54616905	          1.08618241	          0.06814998	
          0.09945283	         -7.85152089	         -3.34872617	          3.27644324	          0.06029734	          0.89047381	         -0.28176616	         -3.14837747	         -3.47830253	          0.73603722	         31.39180097	          5.02842527	         -4.59334798	         30.39476473	         15.35344060	          3.78586931	          1.49177566	          4.28133579	        -13.82987626	        -31.70726153	        -21.54757898	          6.86952221	          3.16674930	         -7.17007428	         11.38823706	        -16.25512699	          5.46285068	        -14.85315314	        -10.63321928	         -5.70780340	         35.38169663	          7.06210964	         78.68471461	         83.48534062	         16.81642561	         -8.11951987	        -19.29499288	        -29.41376493	          3.30280034	          6.82886493	         -7.52517681	        -28.68353653	        -44.60630986	         13.74699975	          0.12532795	          2.74441647	
          0.11960377	         -7.29898074	         -3.88780117	          3.18640291	          0.08772094	          0.89287735	         -0.27876696	         -1.81008017	         -4.61283230	          0.85215992	         29.63301920	          6.06390730	         -4.12020671	         36.19499565	         16.44072221	         -0.42725732	          1.39634886	          3.19668432	        -14.56044880	        -30.27738247	        -16.89967790	          6.65511099	          4.16941314	         -7.37809400	          9.85073658	        -15.53648016	          4.90141988	        -13.99707361	        -11.05097021	         -4.90613454	         34.51808490	          6.99258612	         78.51676737	         83.66621496	         84.00601785	        -80.43299876	          4.29814249	        -14.08421915	         -2.23800818	          4.62412134	        -43.20692034	          7.66052716	        -15.74319729	          2.14080347	         -0.12347736	          6.00351124	
          0.13975472	         -6.75552279	         -4.22840708	          3.11870825	          0.11426206	          0.89638588	         -0.27573202	          0.19711412	         -5.44769988	          1.13532484	         27.56796269	          6.89618884	         -3.65792070	         42.28642426	         17.00469771	         -4.57328402	          1.85864878	          2.02923084	        -14.88267930	        -25.27526928	        -13.26496989	          6.32972491	          4.87359166	         -7.49118429	          8.31154069	        -14.88303525	          4.50763208	        -12.88795531	        -11.38719184	         -3.94047780	         33.34788791	          7.15796502	         78.35011555	         83.80717391	         94.05281371	        -97.84062534	         15.29145986	        -17.38806760	         -4.82309938	          4.57143992	        -44.74511584	         15.13365212	          6.58891742	         -5.40919495	         -0.10734599	          7.71271424	
          0.15990566	         -6.24670744	         -4.34106956	          3.05373859	          0.13968664	          0.90057769	         -0.27269693	          2.78971527	         -5.90487658	          1.54253410	         25.25172356	          7.46735220	         -3.21049683	         48.30708387	         16.96246946	         -8.10372859	          2.72443848	          0.78205392	        -14.76798178	        -19.58592075	        -10.47472661	          5.92149043	          5.23821603	         -7.45967279	          6.81699013	        -14.31374960	          4.30402425	        -11.55832047	        -11.64322324	         -2.83276239	         31.91094349	          7.57856560	         78.21034624	         83.93278172	         27.90992015	        -34.65540994	          1.41574520	        -45.30785598	         -1.07404071	          8.12870402	         -7.09586501	        -20.93215331	          1.67681633	         -4.08709684	         -0.45124030	          7.37114743	
